<?xml version="1.0" encoding="UTF-8" standalone="no"?>
<!-- Created with Inkscape (http://www.inkscape.org/) -->

<svg
   xmlns:dc="http://purl.org/dc/elements/1.1/"
   xmlns:cc="http://creativecommons.org/ns#"
   xmlns:rdf="http://www.w3.org/1999/02/22-rdf-syntax-ns#"
   xmlns:svg="http://www.w3.org/2000/svg"
   xmlns="http://www.w3.org/2000/svg"
   xmlns:sodipodi="http://sodipodi.sourceforge.net/DTD/sodipodi-0.dtd"
   xmlns:inkscape="http://www.inkscape.org/namespaces/inkscape"
   version="1.1"
   id="svg6348"
   width="920.00006"
   height="991.62207"
   viewBox="0 0 920.00006 991.62207"
   sodipodi:docname="calendar.svg"
   inkscape:version="0.92.4 (5da689c313, 2019-01-14)">
  <metadata
     id="metadata6354">
    <rdf:RDF>
      <cc:Work
         rdf:about="">
        <dc:format>image/svg+xml</dc:format>
        <dc:type
           rdf:resource="http://purl.org/dc/dcmitype/StillImage" />
        <dc:title></dc:title>
      </cc:Work>
    </rdf:RDF>
  </metadata>
  <defs
     id="defs6352" />
  <sodipodi:namedview
     pagecolor="#ffffff"
     bordercolor="#666666"
     borderopacity="1"
     objecttolerance="10"
     gridtolerance="10"
     guidetolerance="10"
     inkscape:pageopacity="0"
     inkscape:pageshadow="2"
     inkscape:window-width="1251"
     inkscape:window-height="731"
     id="namedview6350"
     showgrid="false"
     inkscape:zoom="0.23046875"
     inkscape:cx="413.77114"
     inkscape:cy="498.30753"
     inkscape:window-x="2258"
     inkscape:window-y="116"
     inkscape:window-maximized="0"
     inkscape:current-layer="svg6348" />
  <path
     style="fill:#000000"
     d="M 59.999999,990.89823 C 33.166899,987.05103 8.768199,964.56083 1.7205,937.17743 0.1085,930.91423 0,907.52623 0,566.4925 c 0,-343.93454 0.097,-364.35831 1.7551,-370.5 0.965299,-3.575 3.626899,-10.325 5.914599,-15 3.4386,-7.02656 5.8212,-10.15282 13.7449,-18.0348 10.9024,-10.84494 19.1426,-15.78287 31.6948,-18.9932 7.0469,-1.80229 11.1743,-1.972 47.960201,-1.972 h 40.2497 l 0.4565,-33.75 c 0.5127,-37.897881 1.0048,-41.432511 7.8095,-56.093521 5.1234,-11.03843 10.949,-19.0194 20.6363,-28.27118 9.4148,-8.99145 19.2087,-15.0703904 30.5491,-18.9613704 C 213.1257,0.67731865 219.5716,0.00830865 248.1395,4.8648018e-5 276.5041,-0.00795135 285.0733,0.96710865 297.398,5.6061086 c 18.7892,7.0722304 38.2529,24.8216904 47.6234,43.4289804 7.8247,15.53778 9.4786,26.91083 9.4786,65.181181 v 27.77623 h 105.9008 105.9008 l 0.4445,-33.75 c 0.4042,-30.678061 0.6422,-34.478171 2.6151,-41.750001 4.5708,-16.84658 12.7255,-30.1998 26.1621,-42.84004 9.4969,-8.934 19.2283,-14.9395504 30.4767,-18.8081604 12.0938,-4.15937995 18.6755,-4.83668995 47,-4.83668995 28.3244,0 34.9062,0.67731 47,4.83668995 11.2483,3.86861 20.9797,9.8741604 30.4766,18.8081604 13.4366,12.64024 21.5913,25.99346 26.1621,42.84004 1.9726,7.27061 2.211,11.0726 2.6146,41.700621 l 0.4441,33.70062 42.6513,0.29938 42.6513,0.29938 7.3346,2.67921 c 11.0765,4.04608 17.7996,8.4556 27.171,17.82079 9.46604,9.45971 14.95634,18.02122 18.27644,28.5 l 2.218,7 v 368.5 c 0,357.55613 -0.056,368.66333 -1.8732,374.00003 -8.0469,23.6278 -26.36654,41.4041 -50.12684,48.6401 -5.7643,1.7555 -21.6355,1.8332 -404,1.9766 -218.9,0.082 -400.700001,-0.2378 -404.000001,-0.711 z M 230.2559,841.24253 230,761.49253 H 150.5 70.999999 l -0.256,79.75 -0.256,79.75 H 150.5 230.5119 Z m 212.2441,-0.25 v -80 H 354 265.5 v 80 80 h 88.5 88.5 z m 212.7559,0.25 -0.2559,-79.75 -88.25,-0.2555 -88.25,-0.2554 v 80.0054 80.0055 h 88.5059 88.506 z m 195,0 -0.2559,-79.75 H 770.5 691 l -0.256,79.75 -0.256,79.75 H 770.5 850.5119 Z M 230.5,637.4925 v -88.5 h -80 -80.000001 v 88.5 88.5 H 150.5 h 80 z m 212,0 v -88.5 H 354 265.5 v 88.5 88.5 h 88.5 88.5 z m 213,0 v -88.5 H 567 478.5 v 88.5 88.5 h 88.5 88.5 z m 195,0 v -88.5 h -80 -80 v 88.5 88.5 h 80 80 z m -620.2441,-203.75 0.256,-79.75 h -80.006 -80.005901 v 79.33333 c 0,43.63334 0.3026,79.63603 0.6726,80.00598 0.37,0.36996 36.257501,0.55746 79.750001,0.41667 L 230,513.4925 Z m 212.2441,0.25 v -80 H 354 265.5 v 80 80 h 88.5 88.5 z m 212.7559,-0.25 0.256,-79.75 H 567.0059 478.5 v 80.00543 80.00544 l 88.25,-0.25544 88.25,-0.25543 z m 195,0 0.256,-79.75 H 770.5059 690.5 v 79.33333 c 0,43.63334 0.3026,79.63603 0.6726,80.00598 0.37,0.36996 36.2575,0.55746 79.75,0.41667 L 850,513.4925 Z M 269.7773,264.93237 c 4.7002,-1.30526 10.5858,-6.36809 12.3716,-10.64213 1.0984,-2.62891 1.3469,-18.71196 1.3291,-86.01562 -0.021,-78.344579 -0.1209,-82.996539 -1.8681,-86.782119 -2.1358,-4.627632 -5.4219,-7.916632 -9.425,-9.433392 -4.4913,-1.70168 -46.1228,-1.41218 -49.4846,0.34411 -3.6257,1.89415 -7.8337,6.45575 -9.1367,9.904382 -0.7204,1.90665 -1.0636,29.638219 -1.0636,85.934279 0,82.21542 0.023,83.16602 2.0858,87.42792 2.3192,4.79092 5.7488,7.65611 10.9507,9.14861 4.6687,1.33952 39.5044,1.42926 44.2408,0.11396 z m 425.2157,-0.0424 c 5.3088,-1.33675 11.1111,-6.79675 12.5697,-11.82807 0.6873,-2.37063 0.9344,-31.66463 0.736,-87.22686 L 708,82.177471 704.9289,78.334979 c -5.5824,-6.98445 -7.1264,-7.33937 -31.9289,-7.33937 -24.8026,0 -26.3466,0.35492 -31.9289,7.33937 L 638,82.177471 637.7012,165.83499 c -0.1956,54.76921 0.053,84.87252 0.7208,87.17604 1.2882,4.44586 7.5076,10.53044 12.078,11.81635 4.8656,1.36897 39.1136,1.41711 44.493,0.0625 z"
     id="path6358"
     inkscape:connector-curvature="0" />
</svg>
