<?xml version="1.0" encoding="UTF-8" standalone="no"?>
<!-- Generator: Adobe Illustrator 18.1.1, SVG Export Plug-In . SVG Version: 6.00 Build 0)  -->

<svg
   xmlns:dc="http://purl.org/dc/elements/1.1/"
   xmlns:cc="http://creativecommons.org/ns#"
   xmlns:rdf="http://www.w3.org/1999/02/22-rdf-syntax-ns#"
   xmlns:svg="http://www.w3.org/2000/svg"
   xmlns="http://www.w3.org/2000/svg"
   xmlns:sodipodi="http://sodipodi.sourceforge.net/DTD/sodipodi-0.dtd"
   xmlns:inkscape="http://www.inkscape.org/namespaces/inkscape"
   version="1.1"
   id="Capa_1"
   x="0px"
   y="0px"
   viewBox="0 0 55.668 55.668"
   style="enable-background:new 0 0 55.668 55.668;"
   xml:space="preserve"
   sodipodi:docname="clock.svg"
   inkscape:version="0.92.4 (5da689c313, 2019-01-14)"><metadata
   id="metadata5004"><rdf:RDF><cc:Work
       rdf:about=""><dc:format>image/svg+xml</dc:format><dc:type
         rdf:resource="http://purl.org/dc/dcmitype/StillImage" /><dc:title></dc:title></cc:Work></rdf:RDF></metadata><defs
   id="defs5002" /><sodipodi:namedview
   pagecolor="#ffffff"
   bordercolor="#666666"
   borderopacity="1"
   objecttolerance="10"
   gridtolerance="10"
   guidetolerance="10"
   inkscape:pageopacity="0"
   inkscape:pageshadow="2"
   inkscape:window-width="640"
   inkscape:window-height="480"
   id="namedview5000"
   showgrid="false"
   inkscape:zoom="4.2394195"
   inkscape:cx="27.834"
   inkscape:cy="27.834"
   inkscape:window-x="2258"
   inkscape:window-y="290"
   inkscape:window-maximized="0"
   inkscape:current-layer="Capa_1" />
<g
   id="g4967"
   transform="matrix(-1,0,0,1,55.667,0)">
	<g
   id="g4965">
		<path
   style="fill:#010002"
   d="M 27.833,0 C 12.487,0 0,12.486 0,27.834 0,43.182 12.487,55.668 27.833,55.668 43.182,55.668 55.667,43.182 55.667,27.834 55.667,12.486 43.182,0 27.833,0 Z m 0,51.957 C 14.532,51.957 3.711,41.136 3.711,27.834 3.711,14.532 14.533,3.711 27.833,3.711 c 13.303,0 24.123,10.821 24.123,24.123 0,13.302 -10.819,24.123 -24.123,24.123 z"
   id="path4961"
   inkscape:connector-curvature="0" />
		<path
   style="fill:#010002"
   d="M 41.618,25.819 H 29.689 V 10.046 c 0,-1.025 -0.831,-1.856 -1.855,-1.856 -1.023,0 -1.854,0.832 -1.854,1.856 v 19.483 h 15.638 c 1.024,0 1.855,-0.83 1.854,-1.855 0,-1.024 -0.832,-1.855 -1.854,-1.855 z"
   id="path4963"
   inkscape:connector-curvature="0" />
	</g>
</g>
<g
   id="g4969">
</g>
<g
   id="g4971">
</g>
<g
   id="g4973">
</g>
<g
   id="g4975">
</g>
<g
   id="g4977">
</g>
<g
   id="g4979">
</g>
<g
   id="g4981">
</g>
<g
   id="g4983">
</g>
<g
   id="g4985">
</g>
<g
   id="g4987">
</g>
<g
   id="g4989">
</g>
<g
   id="g4991">
</g>
<g
   id="g4993">
</g>
<g
   id="g4995">
</g>
<g
   id="g4997">
</g>
</svg>