<?xml version="1.0" encoding="UTF-8" standalone="no"?>
<!-- Created with Inkscape (http://www.inkscape.org/) -->

<svg
   xmlns:dc="http://purl.org/dc/elements/1.1/"
   xmlns:cc="http://creativecommons.org/ns#"
   xmlns:rdf="http://www.w3.org/1999/02/22-rdf-syntax-ns#"
   xmlns:svg="http://www.w3.org/2000/svg"
   xmlns="http://www.w3.org/2000/svg"
   xmlns:sodipodi="http://sodipodi.sourceforge.net/DTD/sodipodi-0.dtd"
   xmlns:inkscape="http://www.inkscape.org/namespaces/inkscape"
   version="1.1"
   id="svg6301"
   width="1306.2941"
   height="1191.3341"
   viewBox="0 0 1306.294 1191.3341"
   sodipodi:docname="47-474370_png-file-svg-hair-wash-icon-png.svg"
   inkscape:version="0.92.4 (5da689c313, 2019-01-14)">
  <metadata
     id="metadata6307">
    <rdf:RDF>
      <cc:Work
         rdf:about="">
        <dc:format>image/svg+xml</dc:format>
        <dc:type
           rdf:resource="http://purl.org/dc/dcmitype/StillImage" />
        <dc:title></dc:title>
      </cc:Work>
    </rdf:RDF>
  </metadata>
  <defs
     id="defs6305" />
  <sodipodi:namedview
     pagecolor="#ffffff"
     bordercolor="#666666"
     borderopacity="1"
     objecttolerance="10"
     gridtolerance="10"
     guidetolerance="10"
     inkscape:pageopacity="0"
     inkscape:pageshadow="2"
     inkscape:window-width="1920"
     inkscape:window-height="1013"
     id="namedview6303"
     showgrid="false"
     inkscape:zoom="0.55874059"
     inkscape:cx="1313.145"
     inkscape:cy="561.52263"
     inkscape:window-x="1911"
     inkscape:window-y="-9"
     inkscape:window-maximized="1"
     inkscape:current-layer="svg6301" />
  <path
     style="fill:#000000;stroke-width:1.33333337"
     d="m 1030.6375,1161.9999 v -29.3333 h 28.7271 28.7271 l -0.7275,-4.3333 c -0.4001,-2.3834 -4.9167,-48.1334 -10.0368,-101.6667 l -9.3092,-97.33324 11.0901,-101.3333 c 7.7466,-70.7826 10.7229,-102.3383 9.8722,-104.6667 -4.3486,-11.9022 -3.9026,-117.33033 1.0296,-243.33335 2.6911,-68.75159 2.6789,-69.58429 -1.0393,-70.8062 -4.7451,-1.55939 -35.8453,-0.80361 -57,1.38517 -10.6333,1.10019 -34.13915,3.91846 -52.23513,6.26281 -29.6776,3.84478 -32.9689,4.5196 -33.5879,6.88653 -0.4328,1.65532 0.739,4.40491 3.1743,7.44788 13.8139,17.26115 13.9469,44.25527 0.3061,62.13507 -6.2224,8.15601 -17.309,16.08601 -26.1669,18.71653 -8.9325,2.65265 -22.59869,2.42361 -31.1233,-0.52161 l -6.96612,-2.40679 -3.36943,8.81772 c -4.80008,12.56165 -11.99221,24.21691 -22.38722,36.27976 l -9.02222,10.4698 h 52.02222 52.02217 V 877.33336 1189.9999 H 843.97074 733.30407 V 1010.5506 831.10146 l -68.63977,67.6743 -68.63978,67.6744 -0.36022,26.7749 -0.36023,26.77484 -64.33334,0.3462 c -50.12866,0.2697 -64.33245,0.7113 -64.32937,2 0.004,1.5462 13.76564,79.9599 15.44213,87.9872 l 0.76579,3.6666 h 63.01939 63.01939 l 20.19961,30.3334 20.19961,30.3333 -227.54334,0.3372 c -125.14883,0.1854 -227.80442,0.076 -228.12352,-0.2431 -0.3191,-0.3191 8.59047,-14.1208 19.79903,-30.6705 l 20.37921,-30.0903 h 59.06063 59.06064 l 0.72036,-3 c 0.39621,-1.65 4.20091,-22.65 8.45491,-46.6666 l 7.73452,-43.6667 h -65.76283 -65.76283 v -39.99994 -40 l 135.66667,-0.052 135.66667,-0.052 112.33334,-110.7307 112.33333,-110.7308 v -25.7937 c 0,-24.9348 -0.0921,-25.8229 -2.76714,-26.6719 -1.52194,-0.483 -2.95251,-0.6734 -3.17906,-0.4232 -0.22654,0.2503 -3.03133,3.5064 -6.23285,7.2357 -3.20152,3.7294 -59.82095,57.9845 -125.82095,120.567 -66,62.5825 -120.2,114.2813 -120.44444,114.8861 -0.24446,0.6048 -50.70793,1.0997 -112.14105,1.0997 H 251.02199 l -57.2068,82.3333 -57.2068,82.33324 -68.304195,0.3454 L 0,1075.3583 15.512965,1049.6795 C 83.264995,937.52896 149.84334,838.43386 174.97624,812.33466 c 13.68959,-14.2159 8.10238,-13.3457 90.25381,-14.0563 l 71.25932,-0.6164 47.65453,-38.8306 c 26.20999,-21.3568 47.69452,-39.1305 47.7434,-39.4972 0.0489,-0.3667 -6.63797,-0.477 -14.85964,-0.2451 -31.984,0.9021 -48.13942,-5.7641 -75.61374,-31.2005 -21.30577,-19.7254 -32.23502,-42.04298 -26.25355,-53.60988 2.81597,-5.44549 6.3078,-7.20956 14.15048,-7.14881 7.44391,0.0576 13.24163,2.26493 25.73961,9.79945 25.72128,15.5063 62.42291,15.36112 116.92027,-0.46249 37.0903,-10.76937 91.08408,-34.33513 139.19334,-60.75139 6.332,-3.47684 9.37412,-4.53254 9.77423,-3.39194 0.43461,1.23898 1.25957,1.29278 3.27597,0.21365 2.31695,-1.23999 5.66828,0.53873 23.88559,12.67732 11.65477,7.76583 21.38958,14.11968 21.6329,14.11968 0.24332,0 0.49955,-3.76755 0.56938,-8.37235 0.0743,-4.8943 1.41648,-12.23337 3.2311,-17.66666 2.93398,-8.78478 3.34418,-9.31742 7.48211,-9.71546 l 4.37795,-0.42114 -6.21832,-6.91219 c -13.09948,-14.56117 -22.34086,-30.96962 -28.07599,-49.85008 -3.16989,-10.4355 -3.5754,-14.00763 -3.67755,-32.39546 -0.1252,-22.53057 1.29228,-30.40154 8.71744,-48.40776 8.69155,-21.07723 29.45044,-45.24805 47.80978,-55.6678 12.9135,-7.32899 12.16213,-6.21755 9.864,-14.59111 -6.29438,-22.93437 5.37837,-48.20813 27.23445,-58.96785 8.36042,-4.11582 9.66983,-4.36132 22.89559,-4.29271 14.72048,0.0764 21.38517,1.96492 30.93723,8.76659 3.86102,2.74929 4.07654,2.75865 11.28778,0.49044 5.42767,-1.70721 10.37664,-2.16517 18.91066,-1.74992 13.30336,0.64732 23.18921,4.42173 31.71905,12.11033 4.75868,4.28936 5.97483,4.70675 15.17332,5.20764 18.89767,1.02902 35.58316,12.46559 43.53833,29.84204 3.0863,6.74118 3.7146,7.34976 6.9279,6.70962 1.9436,-0.3872 16.1338,-2.85183 31.5338,-5.47694 62.18493,-10.60014 103.37993,-19.70121 147.33343,-32.54984 21.5433,-6.29762 50.7471,-11.8487 71.1546,-13.52513 49.4036,-4.05839 88.8224,10.06337 101.2137,36.25972 17.8633,37.76449 20.3114,119.24182 7.5671,251.84269 -4.5495,47.33624 -13.1825,119.00334 -15.3486,127.41694 -3.9272,15.2544 -16.7079,27.2685 -34.2535,32.1991 l -7.6667,2.1545 v 219.7814 219.78134 h -96.6666 -96.6667 z M 917.49287,492.4526 c 6.7217,-2.01388 15.1541,-9.30932 18.7969,-16.26252 6.5447,-12.49192 2.3068,-30.51449 -9.0589,-38.52583 -5.329,-3.75618 -5.5896,-4.23364 -4.3118,-7.89909 0.748,-2.14571 1.1222,-4.13905 0.8316,-4.42967 -0.2906,-0.29061 -9.51,0.9308 -20.4875,2.71426 -10.97749,1.78345 -20.04617,3.25186 -20.15261,3.26312 -0.1064,0.0107 0.9341,3.64353 2.3123,8.0717 3.40052,10.9259 5.68379,30.8446 4.6735,40.77062 l -0.83004,8.15518 6.35221,2.80134 c 7.18693,3.16945 14.31314,3.60628 21.87434,1.34089 z m -36.74274,-92.84286 c -1.18112,-14.45202 -2.48887,-29.07485 -2.90612,-32.49518 l -0.75865,-6.21878 10.10936,-1.63082 c 5.66798,-0.91434 10.10936,-2.29314 10.10936,-3.13836 0,-3.3765 -7.08888,-11.59495 -12.9784,-15.04643 -5.09242,-2.98436 -7.9238,-3.68604 -14.98359,-3.71327 -4.78757,-0.0184 -10.61296,0.45495 -12.94531,1.05202 -3.58598,0.918 -4.47538,0.6469 -5.76142,-1.75607 -1.21208,-2.26481 -1.06546,-3.53661 0.72232,-6.26511 l 2.24313,-3.42345 -3.01531,2.112 c -2.85972,2.00303 -3.27963,1.88575 -8.13825,-2.27307 -11.99779,-10.26965 -28.54426,-9.85796 -42.86707,1.06659 l -4.37363,3.33593 -5.84496,-6.78558 c -8.03045,-9.32278 -17.61988,-13.68823 -28.00074,-12.74692 -9.10855,0.82593 -14.30047,3.3072 -20.69302,9.88938 -5.80685,5.97914 -9.34449,16.81798 -8.12358,24.88958 1.39892,9.2485 1.55941,9.32806 14.04094,6.96036 38.63528,-7.32899 80.53111,5.77728 108.13753,33.82864 9.65729,9.81296 21.29878,26.63461 24.8281,35.87601 1.25294,3.28076 2.51852,5.24366 2.81242,4.36198 0.29389,-0.88168 -0.432,-13.42743 -1.61311,-27.87945 z m 1.42753,-110.22127 c -16.66669,-5.94249 -22.3093,-28.07754 -10.4894,-41.14821 7.22866,-7.99359 21.9612,-9.96872 31.71596,-4.25205 18.71635,10.9685 15.07525,40.15386 -5.73037,45.93162 -6.48313,1.80039 -9.2196,1.70655 -15.49619,-0.53136 z m 281.67254,-24.88512 c -44.6991,-4.2113 -86.6105,-35.81996 -104.8802,-79.09833 -7.8827,-18.67279 -10.1917,-30.74536 -10.2145,-53.40502 -0.022,-21.89786 2.3068,-34.355497 9.7955,-52.39928 15.4721,-37.27983 46.8661,-65.15136 86.2265,-76.55175 C 1153.8504,0.42108 1158.3425,0 1177.3042,0 c 24.5473,0 33.9148,1.87564 52.6892,10.54996 82.2879,38.01936 102.368,149.45186 38.7901,215.26223 -28.0482,29.03311 -64.5581,42.4951 -104.9333,38.69116 z M 786.7969,236.52141 c -11.06056,-3.3237 -17.88383,-12.70952 -17.77828,-24.45515 0.13136,-14.61856 10.33536,-24.73292 24.95212,-24.73292 10.07611,0 18.26237,4.93923 22.89652,13.81473 3.14425,6.02203 2.66185,16.90228 -1.04156,23.49162 -5.41165,9.62874 -18.58412,15.02033 -29.0288,11.88172 z m 69.2192,-36.8568 c -16.91609,-8.53348 -9.83876,-35.50266 9.24758,-35.23925 10.94636,0.15107 18.69284,7.91764 18.70208,18.75061 0.012,14.48793 -14.70474,23.17014 -27.94966,16.48864 z m -44.30391,-60.38469 c -3.40736,-3.40737 -3.91713,-4.73484 -3.19836,-8.32871 1.08623,-5.43113 4.31032,-8.65522 9.74146,-9.74145 3.59386,-0.71877 4.92133,-0.209 8.3287,3.19836 5.21796,5.21797 5.26674,9.91702 0.15598,15.02778 -5.11076,5.11076 -9.80982,5.06198 -15.02778,-0.15598 z m 87.28513,-30.31616 c -4.02342,-0.64354 -8.35991,-6.45544 -8.35991,-11.204177 0,-5.473593 5.29844,-10.426253 11.1542,-10.426253 8.87016,0 14.36356,11.351563 8.76046,18.10281 -1.88946,2.27668 -7.90111,4.11201 -11.55475,3.52762 z"
     id="path6311"
     inkscape:connector-curvature="0" />
</svg>
