<?xml version="1.0" encoding="UTF-8" standalone="no"?>
<!-- Created with Inkscape (http://www.inkscape.org/) -->

<svg
   xmlns:dc="http://purl.org/dc/elements/1.1/"
   xmlns:cc="http://creativecommons.org/ns#"
   xmlns:rdf="http://www.w3.org/1999/02/22-rdf-syntax-ns#"
   xmlns:svg="http://www.w3.org/2000/svg"
   xmlns="http://www.w3.org/2000/svg"
   xmlns:sodipodi="http://sodipodi.sourceforge.net/DTD/sodipodi-0.dtd"
   xmlns:inkscape="http://www.inkscape.org/namespaces/inkscape"
   version="1.1"
   id="svg6313"
   width="34.12571"
   height="33.719082"
   viewBox="0 0 34.125709 33.719082"
   sodipodi:docname="40735.svg"
   inkscape:version="0.92.4 (5da689c313, 2019-01-14)">
  <metadata
     id="metadata6319">
    <rdf:RDF>
      <cc:Work
         rdf:about="">
        <dc:format>image/svg+xml</dc:format>
        <dc:type
           rdf:resource="http://purl.org/dc/dcmitype/StillImage" />
        <dc:title></dc:title>
      </cc:Work>
    </rdf:RDF>
  </metadata>
  <defs
     id="defs6317" />
  <sodipodi:namedview
     pagecolor="#ffffff"
     bordercolor="#666666"
     borderopacity="1"
     objecttolerance="10"
     gridtolerance="10"
     guidetolerance="10"
     inkscape:pageopacity="0"
     inkscape:pageshadow="2"
     inkscape:window-width="1920"
     inkscape:window-height="1013"
     id="namedview6315"
     showgrid="false"
     inkscape:zoom="6.9140629"
     inkscape:cx="-10.413518"
     inkscape:cy="26.557034"
     inkscape:window-x="1911"
     inkscape:window-y="-9"
     inkscape:window-maximized="1"
     inkscape:current-layer="svg6313" />
  <path
     style="fill:#000000;stroke-width:0.06666666"
     d="m 6.136735,33.669108 c 0.0018,-0.0275 0.249349,-0.41 0.55,-0.85 l 0.546638,-0.8 1.683333,-0.01781 c 0.925834,-0.0098 1.683475,-0.0248 1.683649,-0.03333 2e-4,-0.0085 0.102782,-0.584757 0.228017,-1.280491 0.125235,-0.695733 0.213322,-1.288233 0.195749,-1.316666 -0.01757,-0.02843 -0.85518,-0.0517 -1.861349,-0.0517 H 7.333373 v -1.1 -1.1 h 4.153152 4.153151 l 0.892254,-4.049999 c 0.490738,-2.2275 0.90932,-4.068746 0.93018,-4.091658 0.02086,-0.02291 0.517929,0.06761 1.104595,0.201165 0.814187,0.185346 1.063435,0.266216 1.053013,0.341658 -0.01408,0.101906 -2.058627,9.365181 -2.128397,9.643165 l -0.03907,0.155669 h -1.788838 c -0.983861,0 -1.802907,0.02276 -1.820101,0.05058 -0.01719,0.02782 0.05514,0.53032 0.16075,1.116666 0.105606,0.586346 0.209264,1.163583 0.230348,1.28275 l 0.03834,0.216667 1.780312,0.0025 1.780312,0.0025 0.586685,0.864154 0.586686,0.864154 H 12.57006 c -3.540176,0 -6.435172,-0.0225 -6.433323,-0.05 z m 20.196637,-0.85 v -0.833333 h 0.808588 0.808589 l -0.03831,-0.316667 c -0.02107,-0.174167 -0.148284,-1.456666 -0.2827,-2.85 l -0.244392,-2.533333 0.303984,-2.833333 c 0.275672,-2.569448 0.29845,-2.904405 0.244576,-3.59643 -0.05584,-0.717232 -0.0017,-4.324427 0.107262,-7.144941 l 0.04559,-1.180213 -0.259927,-0.07217 c -0.362319,-0.100599 -1.105935,-0.09063 -2.267973,0.03041 -0.93075,0.09695 -2.30399,0.282835 -2.329898,0.315387 -0.0064,0.008 0.137345,0.671107 0.319438,1.473473 0.217942,0.960332 0.307229,1.473587 0.261289,1.50198 -0.159636,0.09866 -2.687025,0.621098 -2.735892,0.565537 -0.02888,-0.03283 -0.406594,-1.633105 -0.839371,-3.556158 -0.432777,-1.923054 -0.799999,-3.546678 -0.816049,-3.608054 -0.02007,-0.07676 0.02485,-0.125153 0.143902,-0.155034 0.178214,-0.04473 0.181884,-0.07645 0.06061,-0.523785 -0.0174,-0.06417 4e-4,-0.116667 0.03953,-0.116667 0.03914,0 0.07116,-0.05702 0.07116,-0.12671 0,-0.09121 0.07005,-0.143683 0.25,-0.187284 0.196208,-0.04754 0.24498,-0.08841 0.22667,-0.189956 -0.01283,-0.07116 -0.04501,-0.144383 -0.07151,-0.162716 -0.0265,-0.01833 -0.0475,-0.142066 -0.04667,-0.274961 0.0015,-0.2341 0.01164,-0.243966 0.326595,-0.316667 0.537292,-0.124022 0.550807,-0.117742 0.644136,0.299296 l 0.08377,0.374335 0.230319,-0.03738 c 0.165436,-0.02685 0.240739,-0.01023 0.267303,0.059 0.02034,0.05301 0.07494,0.09637 0.121328,0.09637 0.04685,0 0.103302,0.118538 0.126989,0.266667 0.03531,0.220815 0.06882,0.266666 0.194886,0.266666 0.141778,0 0.167284,0.0676 0.371029,0.983334 0.120331,0.540833 0.248619,1.099534 0.285085,1.241558 l 0.0663,0.258224 0.611882,-0.04537 c 1.378221,-0.102197 3.275561,-0.446542 4.178549,-0.75836 0.201667,-0.06964 0.771667,-0.226627 1.266667,-0.348862 0.795549,-0.196453 1.008319,-0.222726 1.833333,-0.226384 1.043956,-0.0046 1.440434,0.08008 1.980223,0.423073 0.694105,0.441051 0.942104,1.473078 0.931884,3.877963 -0.01017,2.392156 -0.471735,7.124984 -0.747599,7.665723 -0.14726,0.288653 -0.512052,0.558987 -0.847842,0.628304 l -0.216666,0.04473 v 6.228036 6.228035 H 29.066705 26.333372 Z M 21.650011,14.726959 c -0.0152,-0.05932 -0.339503,-1.49535 -0.720676,-3.191183 L 20.236292,8.452443 h -0.184793 c -0.101637,0 -0.184794,0.01585 -0.184794,0.03521 0,0.05383 1.397162,6.254153 1.42861,6.339877 0.04509,0.122921 0.387112,0.02594 0.354696,-0.100576 z M 4e-5,31.052442 v -0.8 h 0.524327 0.524326 l 0.355501,-0.583334 c 1.167145,-1.915141 2.825736,-4.445053 3.463712,-5.283333 0.641738,-0.843222 0.985675,-1.191524 1.219632,-1.235108 0.116876,-0.02177 1.171151,-0.06028 2.342833,-0.08557 l 2.130331,-0.04599 0.217247,-0.766667 c 0.119486,-0.421667 0.218337,-0.79054 0.219669,-0.81972 0.0013,-0.02918 -0.134789,0.05171 -0.302491,0.179764 -0.546201,0.417055 -0.867863,0.536812 -1.511981,0.562919 -1.274022,0.05164 -2.430091,-0.46106 -2.290824,-1.015947 0.05877,-0.234148 0.378839,-0.384376 0.904705,-0.424628 1.265658,-0.09688 2.528686,-1.22679 3.999848,-3.578272 0.27674,-0.442337 0.665247,-1.113093 0.863349,-1.490568 l 0.360184,-0.686318 1.76235,0.01972 1.762351,0.01972 0.169325,0.196964 c 0.155043,0.180351 0.166121,0.233768 0.131346,0.633333 -0.04319,0.496229 -2.030548,10.276655 -2.10359,10.352434 -0.02619,0.02717 -1.620202,0.05717 -3.542254,0.06667 l -3.49464,0.01727 -1.349048,1.933333 -1.349047,1.933334 -0.0036,0.85 -0.0036,0.849999 H 2.5 0 Z M 21.158975,15.88967 c -0.10911,-0.284335 -0.03438,-0.318742 1.388081,-0.639085 l 1.380254,-0.310839 0.04271,0.194449 c 0.02349,0.106946 0.0262,0.210958 0.006,0.231135 -0.04226,0.04226 -2.54601,0.620446 -2.68676,0.620446 -0.05138,0 -0.110019,-0.04325 -0.130303,-0.09611 z m -7.44744,-1.542411 c -0.841269,-0.203709 -1.760175,-0.918029 -2.165154,-1.6831 -0.29291,-0.553356 -0.413008,-1.031717 -0.413008,-1.645049 0,-0.927787 0.341708,-1.760549 0.987323,-2.406164 1.364604,-1.364605 3.438692,-1.3763 4.818396,-0.02717 1.386855,1.356123 1.401625,3.471667 0.03379,4.839505 -0.86611,0.866111 -2.077635,1.208607 -3.261343,0.921977 z m 3.65517,-6.267029 c 0.257558,-0.195692 2.304895,-1.237266 2.381681,-1.211671 0.04271,0.01424 -0.08569,0.117533 -0.285344,0.229547 -1.391091,0.780462 -2.538292,1.31792 -2.096337,0.982124 z m -1.21918,-0.503578 c 0.02716,-0.08149 2.048451,-0.550494 2.109477,-0.489468 0.06819,0.06819 -0.07386,0.114082 -0.933635,0.301639 -0.489497,0.106781 -0.960431,0.211087 -1.046519,0.231792 -0.106101,0.02552 -0.147762,0.01135 -0.129323,-0.04396 z M 29.929222,7.450528 c -1.415331,-0.216907 -2.645159,-1.37987 -2.992555,-2.829851 -0.115236,-0.48098 -0.09946,-1.432184 0.03125,-1.884792 0.345435,-1.196065 1.2304,-2.16527204 2.332116,-2.55411704 0.555077,-0.195911 1.40733,-0.2393221 1.993131,-0.1015238 1.362231,0.3204388 2.422339,1.43382584 2.744662,2.88260484 0.556287,2.500405 -1.613247,4.870106 -4.108609,4.487679 z M 16.800039,6.71911 c 0,-0.03667 0.02949,-0.06667 0.06552,-0.06667 0.03604,0 0.683381,-0.04766 1.438545,-0.105899 1.226928,-0.09463 1.51843,-0.09438 1.422812,0.0012 -0.02502,0.02501 -2.552868,0.237985 -2.824757,0.237985 -0.05617,0 -0.102121,-0.03 -0.102121,-0.06667 z"
     id="path6323"
     inkscape:connector-curvature="0" />
</svg>
