<?xml version="1.0" encoding="UTF-8" standalone="no"?>
<!-- Created with Inkscape (http://www.inkscape.org/) -->

<svg
   xmlns:dc="http://purl.org/dc/elements/1.1/"
   xmlns:cc="http://creativecommons.org/ns#"
   xmlns:rdf="http://www.w3.org/1999/02/22-rdf-syntax-ns#"
   xmlns:svg="http://www.w3.org/2000/svg"
   xmlns="http://www.w3.org/2000/svg"
   xmlns:sodipodi="http://sodipodi.sourceforge.net/DTD/sodipodi-0.dtd"
   xmlns:inkscape="http://www.inkscape.org/namespaces/inkscape"
   version="1.1"
   id="svg5629"
   width="768.0332"
   height="751.30347"
   viewBox="0 0 768.0332 751.30347"
   sodipodi:docname="scissors.svg"
   inkscape:version="0.92.4 (5da689c313, 2019-01-14)">
  <metadata
     id="metadata5635">
    <rdf:RDF>
      <cc:Work
         rdf:about="">
        <dc:format>image/svg+xml</dc:format>
        <dc:type
           rdf:resource="http://purl.org/dc/dcmitype/StillImage" />
        <dc:title></dc:title>
      </cc:Work>
    </rdf:RDF>
  </metadata>
  <defs
     id="defs5633" />
  <sodipodi:namedview
     pagecolor="#ffffff"
     bordercolor="#666666"
     borderopacity="1"
     objecttolerance="10"
     gridtolerance="10"
     guidetolerance="10"
     inkscape:pageopacity="0"
     inkscape:pageshadow="2"
     inkscape:window-width="1920"
     inkscape:window-height="1013"
     id="namedview5631"
     showgrid="false"
     inkscape:zoom="0.70785663"
     inkscape:cx="763.03564"
     inkscape:cy="442.35334"
     inkscape:window-x="1911"
     inkscape:window-y="-9"
     inkscape:window-maximized="1"
     inkscape:current-layer="svg5629" />
  <path
     style="fill:#000000;stroke-width:0.96027553"
     d="m 555.60412,1.7985879 c 1.7165,1.046566 3.1209,2.380716 3.1209,2.964784 0,0.584068 -10.84507,32.2434991 -24.10017,70.3542991 -13.2551,38.110799 -35.29224,101.619839 -48.97143,141.131189 -13.6792,39.51135 -25.27634,72.59571 -25.77142,73.52078 -0.49508,0.92506 -2.33279,2.15047 -4.08379,2.72311 -1.751,0.57264 -20.42419,6.928 -41.49597,14.12303 -21.07178,7.19503 -38.49493,12.89929 -38.71808,12.67612 -0.22316,-0.22316 0.54602,-2.28415 1.7093,-4.57997 6.84547,-13.5101 167.46745,-307.8257821 170.63484,-312.6627481 1.74008,-2.65729398 3.62749,-2.71890498 7.67582,-0.250594 z M 763.41497,195.5447 c 0.77507,0.92427 2.13124,2.84268 3.01372,4.26314 l 1.60452,2.58264 -17.98923,9.56892 c -171.35936,91.15035 -326.26454,172.63617 -344.48291,181.2107 -15.64954,7.3655 -13.63527,7.4437 -23.93949,-0.92934 -4.92864,-4.00494 -9.44543,-7.2817 -10.03731,-7.2817 -1.26103,0 -146.65378,41.4218 -155.30512,44.2458 l -5.86929,1.91586 -0.52035,10.76889 c -0.56824,11.76027 -2.70896,20.12799 -7.66837,29.97438 -14.44571,28.68042 -46.53583,52.59413 -83.03341,61.87689 -17.64116,4.48683 -48.366422,4.55384 -64.127241,0.13988 C 16.876875,523.18706 -5.6541267,490.98338 1.2319803,456.9434 8.7667053,419.69717 45.490277,386.44654 92.511238,374.29643 c 7.881632,-2.0366 10.586852,-2.22665 30.728822,-2.15882 19.24336,0.0648 23.09454,0.33641 29.91879,2.11 9.77756,2.54112 19.93752,7.1327 29.84367,13.48723 4.20677,2.69854 8.16325,4.90642 8.79217,4.90642 1.03523,0 21.28082,-7.0322 100.934,-35.05891 14.52417,-5.11046 66.37905,-23.32439 115.23307,-40.4754 48.85402,-17.15101 92.93066,-32.63988 97.9481,-34.4197 10.46578,-3.71247 120.1584,-42.17791 165.1674,-57.91852 75.21857,-26.30556 88.56854,-30.90451 89.71044,-30.90451 0.66994,0 1.85222,0.75622 2.62727,1.68048 z m -370.6084,139.04856 c -14.61423,6.09541 -18.86742,26.24881 -7.7317,36.63604 5.17021,4.82269 16.33573,6.65118 23.1578,3.79238 14.63871,-6.13439 18.79948,-25.99542 7.64064,-36.47186 -5.52073,-5.1831 -15.8699,-6.95827 -23.06674,-3.95656 z M 93.761068,401.16492 c -22.81947,5.97443 -44.374655,22.27929 -53.465786,40.44282 -4.806534,9.60317 -6.25751,16.50846 -5.620271,26.74731 0.415415,6.67474 1.07886,9.18806 3.969087,15.03604 9.601786,19.42789 34.70458,29.85036 63.759742,26.47252 13.07764,-1.52036 21.9548,-4.11751 32.25209,-9.43585 29.11232,-15.03593 46.18903,-42.32651 40.88189,-65.33407 -1.79108,-7.76473 -5.02345,-13.07675 -12.46362,-20.48256 -12.77428,-12.71524 -24.35082,-16.48258 -48.47662,-15.77564 -9.29713,0.27243 -15.724102,0.99093 -20.836512,2.32943 z m 282.608702,-0.92658 c 3.48638,2.65393 6.81622,5.40047 7.39961,6.10342 0.8236,0.99238 -0.7026,3.20035 -6.8269,9.8766 -34.30064,37.39199 -58.91153,73.02162 -66.47375,96.2353 -2.07256,6.3621 -1.67451,8.3842 4.44929,22.60258 6.53061,15.16294 7.96678,23.54188 7.27394,42.43807 -1.36724,37.2898 -17.10674,69.12944 -47.34137,95.7674 -4.05891,3.57607 -7.68956,6.50194 -8.0681,6.50194 -0.37855,0 -0.91685,6.80595 -1.19622,15.12434 -0.78204,23.28574 -5.20226,36.5511 -15.66612,47.01497 -7.5212,7.52119 -12.21222,9.39962 -23.4761,9.4005 -7.92401,6.2e-4 -9.78736,-0.3275 -13.924,-2.45199 -2.90643,-1.49267 -4.87995,-3.18408 -5.04197,-4.32124 -0.37136,-2.60634 8.13489,-12.80085 13.52242,-16.20629 10.06542,-6.36229 13.84379,-17.31531 9.13248,-26.47395 l -2.22289,-4.32124 -11.04317,-0.14436 c -7.72906,-0.10104 -13.29113,-0.74138 -18.53378,-2.13373 -24.96194,-6.62945 -42.88111,-26.6164 -49.30908,-54.9991 -2.27163,-10.03041 -2.28239,-31.41086 -0.0212,-42.11133 8.4041,-39.77002 32.06394,-73.26607 64.31103,-91.04728 15.08782,-8.31951 21.47222,-9.9892 40.73232,-10.65259 12.92377,-0.44515 16.8231,-0.88395 17.86047,-2.00989 0.72991,-0.79223 9.96135,-15.70051 20.51432,-33.12951 10.55297,-17.429 22.16931,-36.52994 25.81409,-42.44652 l 6.62688,-10.75742 6.7399,-2.38135 c 12.16545,-4.29829 29.70384,-9.35452 34.10776,-9.83308 4.01834,-0.43666 4.76558,-0.13133 10.66014,4.35575 z M 237.51285,531.40045 c -8.60136,1.79969 -20.40844,7.66366 -28.17714,13.99413 -12.57925,10.25046 -24.20693,28.43144 -29.12747,45.54358 -2.96998,10.32867 -3.19844,30.77196 -0.43462,38.89116 4.77203,14.01871 12.79465,23.64498 24.1246,28.9469 6.17458,2.88944 6.42031,2.92205 19.54754,2.59414 l 13.29435,-0.33208 9.02885,-4.50608 c 21.05955,-10.51031 35.53405,-28.22962 43.67331,-53.46376 2.41851,-7.49811 2.53316,-8.71336 2.12372,-22.51171 -0.37244,-12.55135 -0.77918,-15.56333 -2.91614,-21.59474 -5.27222,-14.88043 -16.81518,-24.70791 -32.89177,-28.0035 -5.92162,-1.21389 -10.90863,-1.09308 -18.24523,0.44196 z"
     id="path5639"
     inkscape:connector-curvature="0" />
</svg>
