<?xml version="1.0" encoding="UTF-8" standalone="no"?>
<!-- Created with Inkscape (http://www.inkscape.org/) -->

<svg
   xmlns:dc="http://purl.org/dc/elements/1.1/"
   xmlns:cc="http://creativecommons.org/ns#"
   xmlns:rdf="http://www.w3.org/1999/02/22-rdf-syntax-ns#"
   xmlns:svg="http://www.w3.org/2000/svg"
   xmlns="http://www.w3.org/2000/svg"
   xmlns:sodipodi="http://sodipodi.sourceforge.net/DTD/sodipodi-0.dtd"
   xmlns:inkscape="http://www.inkscape.org/namespaces/inkscape"
   version="1.1"
   id="svg6325"
   width="811.20544"
   height="775.28107"
   viewBox="0 0 811.20544 775.28107"
   sodipodi:docname="Hairdresser-Transparent-Image.svg"
   inkscape:version="0.92.4 (5da689c313, 2019-01-14)">
  <metadata
     id="metadata6331">
    <rdf:RDF>
      <cc:Work
         rdf:about="">
        <dc:format>image/svg+xml</dc:format>
        <dc:type
           rdf:resource="http://purl.org/dc/dcmitype/StillImage" />
        <dc:title></dc:title>
      </cc:Work>
    </rdf:RDF>
  </metadata>
  <defs
     id="defs6329" />
  <sodipodi:namedview
     pagecolor="#ffffff"
     bordercolor="#666666"
     borderopacity="1"
     objecttolerance="10"
     gridtolerance="10"
     guidetolerance="10"
     inkscape:pageopacity="0"
     inkscape:pageshadow="2"
     inkscape:window-width="640"
     inkscape:window-height="480"
     id="namedview6327"
     showgrid="false"
     inkscape:zoom="0.211875"
     inkscape:cx="776.49073"
     inkscape:cy="536.75828"
     inkscape:window-x="2319"
     inkscape:window-y="280"
     inkscape:window-maximized="0"
     inkscape:current-layer="svg6325" />
  <path
     style="fill:#000000;stroke-width:1.33333337"
     d="m 501.33332,763.25468 v -12 H 514.66665 528 v -76.6666 c 0,-42.1667 6.1e-4,-77.1167 9.9e-4,-77.6667 7.6e-4,-0.55 -14.69925,-1.16048 -32.66666,-1.35663 l -32.668,-0.35663 v -12.64337 -12.64337 h 18.68455 18.68456 l -2.15066,-5 c -3.2866,-7.64091 -6.80847,-20.44472 -7.82772,-28.45779 -0.50434,-3.96488 -1.21399,-8.25888 -1.57703,-9.54221 -0.62123,-2.19602 2.68005,-2.33334 56.09644,-2.33334 31.21609,0 56.755,0.45 56.75316,1 -0.0133,3.92283 -7.34085,27.08494 -10.63016,33.601 -2.21823,4.3943 -4.03315,8.60674 -4.03315,9.36098 0,0.8634 5.92648,1.37136 16,1.37136 h 16 v 12.66666 12.66667 h -30 -30 v 77.99997 78 h 12 12 v 12 12 H 542 501.33332 Z m 137.3333,-7.3201 v -19.3465 h 18.1915 18.1915 l -0.893,-9.6667 c -4.6155,-49.9649 -7.8119,-83.3607 -9.4756,-99 -1.26289,-11.8709 -1.9986,-32.50102 -2.02099,-56.66667 -0.019,-20.9 -0.72271,-54.8 -1.563,-75.33333 -1.7518,-42.81111 -1.4833,-107.86163 0.7151,-173.23974 1.3234,-39.35608 1.2671,-45.49361 -0.4325,-47.1918 -3.0015,-2.99897 -52.7701,-1.25533 -107.83591,3.77802 -25.18428,2.30198 -45.99581,3.97921 -46.24784,3.72717 -0.25204,-0.25204 -0.94673,-4.87439 -1.54374,-10.27187 l -1.08548,-9.81361 -9.33333,-0.42803 C 490.2,262.24611 482.4,261.6832 478,261.2306 l -8,-0.8229 -5.94428,6.09017 c -4.65634,4.77061 -6.88619,6.09017 -10.29148,6.09017 -3.41868,0 -4.17412,-0.45106 -3.53684,-2.1118 0.4457,-1.16148 1.17686,-1.61148 1.62481,-1 0.44795,0.6115 2.01445,1.10807 3.48112,1.10351 2.13808,-0.007 2.60725,-0.79953 2.36692,-4 -0.16487,-2.19544 0.0352,-3.24171 0.44444,-2.32504 1.10708,2.47936 3.66052,2.01893 5.54588,-1 1.49917,-2.40056 1.33159,-2.66667 -1.67928,-2.66667 -3.65861,0 -4.53525,-2.29348 -1.34463,-3.51782 1.1,-0.42212 2,-1.3387 2,-2.03686 0,-0.69814 -0.6,-0.89854 -1.33333,-0.44532 -0.81015,0.50071 -1.26208,-1.16876 -1.15176,-4.25464 0.1104,-3.08918 0.40793,-3.90349 0.7594,-2.07869 0.31781,1.65 1.43609,3 2.48509,3 2.69347,0 2.37036,-3.51555 -0.51386,-5.59107 -1.33163,-0.95824 -2.8128,-2.79226 -3.2915,-4.0756 -1.2159,-3.25974 -3.32426,-2.90949 -4.01306,0.66667 -0.55422,2.87745 -0.59342,2.86384 -0.95966,-0.33333 -0.25889,-2.26007 -0.68218,-1.40146 -1.31465,2.66666 l -0.93281,6 -0.20027,-6.33333 c -0.20012,-6.32911 -0.19728,-6.33333 4.24479,-6.33333 3.88684,0 5.0793,0.9209 9.4957,7.33333 l 5.05066,7.33333 8.83764,0.13518 c 4.86069,0.0744 12.28762,0.34738 16.50429,0.60674 L 504,253.80154 v -8.46798 -8.46797 l 11,-0.89224 c 19.52742,-1.58392 63.73876,-6.1056 86.33333,-8.82968 28.4392,-3.42872 45.2032,-6.52345 70.6667,-13.04551 27.8925,-7.1442 39.5972,-8.68216 59.1441,-7.77134 21.7928,1.01546 35.0703,5.74958 44.51,15.87012 4.5286,4.85524 9.394,18.13222 11.9724,32.67116 3.0826,17.38168 3.0335,78.1469 -0.092,114.38661 -2.7757,32.18041 -12.2791,114.63592 -13.4263,116.49209 -0.4775,0.77255 -2.9444,1.79414 -5.482,2.2702 l -4.6139,0.86558 -0.3394,142.8527 -0.3393,142.8528 -62.3333,0.3465 -62.3334,0.3465 z m -501.80915,-79.9934 12.86758,-19.3135 38.76244,-0.3531 38.76246,-0.3532 0.97346,-5.3333 c 5.3747,-29.4461 9.10991,-51.19536 9.10991,-53.04492 0,-2.05777 -3.63371,-2.28121 -42.33333,-2.60305 l -42.33334,-0.35207 v -25.33333 -25.33333 l 88.36704,-0.66667 88.36704,-0.66667 86.7612,-85.33333 c 47.71866,-46.93333 87.15975,-85.48541 87.64687,-85.67131 0.48712,-0.18588 8.97941,7.79083 18.87176,17.72602 l 17.98609,18.06396 -12,11.48892 c -6.6,6.3189 -41.85,40.88342 -78.33333,76.81005 L 384,560.99348 v 17.13062 17.13061 h -42.08986 c -39.44989,0 -42.04816,0.14635 -41.42516,2.33333 1.07162,3.76178 3.26987,15.62044 6.8475,36.93934 1.84036,10.9666 3.81444,20.4076 4.38684,20.98 0.5724,0.5724 19.28024,1.1997 41.573,1.394 l 40.53226,0.3533 9.84624,14.6667 c 5.41543,8.0667 11.05383,16.6167 12.52979,19 l 2.68355,4.3333 H 271.43701 123.98989 Z M 0,630.41468 c 0,-1.2592 10.83412,-19.1885 33.67562,-55.7295 45.064185,-72.0921 75.69975,-114.60294 86.68146,-120.28179 3.36698,-1.74113 11.89259,-2.21819 50.44668,-2.82272 l 46.39492,-0.72749 38.734,-33.12386 c 21.30369,-18.21812 38.73532,-33.57777 38.73698,-34.13257 9.9e-4,-0.55479 -4.06509,-0.81469 -9.03718,-0.57757 -12.47067,0.59474 -25.95647,-2.74972 -34.865,-8.64646 -9.68779,-6.41254 -25.83798,-22.7356 -29.39678,-29.71142 -3.99373,-7.82836 -3.94998,-15.83979 0.1044,-19.12286 4.20003,-3.40097 9.08662,-2.47334 22.43968,4.25976 17.09555,8.62019 32.65014,9.83923 58.61392,4.5937 25.51108,-5.15408 68.79348,-22.45674 101.85426,-40.71744 l 11.7163,-6.47136 30.95036,20.78442 c 17.02269,11.43144 32.30034,22.27652 33.95035,24.10016 1.79685,1.98596 2.998,5.0238 2.995,7.57471 -0.0107,8.83009 3.31633,5.31387 -113.17284,119.62221 l -64.51114,63.30344 -72.68298,0.66667 -72.68297,0.66667 -17.54141,25.33333 c -9.64778,13.93333 -26.29364,37.93333 -36.99081,53.33333 l -19.449385,28.00004 -43.481715,0.3515 C 19.56677,631.13298 0,630.89658 0,630.41468 Z M 484.47489,308.62215 c -19.40771,-4.14509 -33.86946,-11.94639 -45.1458,-24.3536 -13.66289,-15.03311 -20.68077,-33.12431 -20.63957,-53.20629 0.0443,-21.58468 7.7386,-40.78007 22.06506,-55.04672 24.88876,-24.78482 63.03058,-30.36214 94.33068,-13.79358 11.19778,5.9275 24.39844,19.38671 30.55719,31.15568 5.22179,9.97852 9.7034,24.48144 8.02143,25.95816 -0.54847,0.48154 -12.99722,1.86978 -27.66388,3.08499 -14.66667,1.2152 -34.01667,2.91905 -43,3.78635 l -16.33334,1.57688 v 5.84128 5.84129 l -4.33333,-0.94521 c -2.38333,-0.51988 -6.02937,-2.36755 -8.10231,-4.10595 -4.14586,-3.4768 -13.78718,-4.40456 -16.59485,-1.59689 -1.19623,1.19622 -2.37065,1.19622 -4.99608,0 -11.88544,-5.41536 -24.36263,3.62124 -21.34733,15.46081 1.0885,4.27399 1.07676,6.95759 -0.064,14.63589 -0.77278,5.20136 -0.46194,6.0396 3.8318,10.33334 3.58792,3.58792 5.77264,4.6728 9.41006,4.6728 6.4441,0 10.464,2.05682 13.14303,6.72476 1.23733,2.15593 4.35732,4.92493 6.93331,6.15333 4.25125,2.02728 5.15896,2.04673 9.83297,0.21073 4.93732,-1.93944 5.29939,-1.89369 8.79241,1.1109 2.18499,1.87944 5.34764,3.13145 7.90203,3.1282 5.90659,-0.008 47.43985,-3.81982 51.92565,-4.76622 7.23852,-1.52717 4.00155,1.72312 -9.95593,9.99686 -11.28935,6.69213 -35.97921,10.83117 -48.56916,8.14221 z m -30.71481,-48.03411 c 0,-4.76666 0.24201,-6.71666 0.53778,-4.33333 0.29575,2.38333 0.29575,6.28333 0,8.66667 -0.29577,2.38333 -0.53778,0.43333 -0.53778,-4.33334 z m 2.63946,-6.66666 c 0,-4.03334 0.24995,-5.68334 0.55545,-3.66667 0.3055,2.01667 0.3055,5.31667 0,7.33333 -0.3055,2.01667 -0.55545,0.36667 -0.55545,-3.66666 z m 241.15828,-64.71112 c -4.6431,-1.00786 -13.5996,-4.32886 -19.90329,-7.38 -9.38941,-4.54475 -13.67561,-7.74942 -23.711,-17.72822 -10.43281,-10.37393 -13.16661,-14.05948 -18.4312,-24.84733 -15.73,-32.23273 -13.4026,-69.163334 6.18589,-98.158534 32.0748,-47.4776295 97.3871,-55.08269 139.0337,-16.1893 12.2151,11.40749 20.9311,25.11914 26.2897,41.35772 3.5789,10.84515 4.0797,14.24276 4.1753,28.32344 0.088,12.937124 -0.4767,18.030424 -2.9484,26.606584 -12.2726,42.58178 -48.2341,70.24294 -90.9152,69.93094 -6.2333,-0.0456 -15.1323,-0.90745 -19.7755,-1.9153 z"
     id="path6335"
     inkscape:connector-curvature="0" />
</svg>
