<?xml version="1.0" encoding="UTF-8" standalone="no"?>
<!-- Created with Inkscape (http://www.inkscape.org/) -->

<svg
   xmlns:dc="http://purl.org/dc/elements/1.1/"
   xmlns:cc="http://creativecommons.org/ns#"
   xmlns:rdf="http://www.w3.org/1999/02/22-rdf-syntax-ns#"
   xmlns:svg="http://www.w3.org/2000/svg"
   xmlns="http://www.w3.org/2000/svg"
   xmlns:sodipodi="http://sodipodi.sourceforge.net/DTD/sodipodi-0.dtd"
   xmlns:inkscape="http://www.inkscape.org/namespaces/inkscape"
   version="1.1"
   id="svg6360"
   width="1305.2441"
   height="1243.3914"
   viewBox="0 0 1305.2441 1243.3914"
   sodipodi:docname="star-half.svg"
   inkscape:version="0.92.4 (5da689c313, 2019-01-14)">
  <metadata
     id="metadata6366">
    <rdf:RDF>
      <cc:Work
         rdf:about="">
        <dc:format>image/svg+xml</dc:format>
        <dc:type
           rdf:resource="http://purl.org/dc/dcmitype/StillImage" />
        <dc:title></dc:title>
      </cc:Work>
    </rdf:RDF>
  </metadata>
  <defs
     id="defs6364" />
  <sodipodi:namedview
     pagecolor="#ffffff"
     bordercolor="#666666"
     borderopacity="1"
     objecttolerance="10"
     gridtolerance="10"
     guidetolerance="10"
     inkscape:pageopacity="0"
     inkscape:pageshadow="2"
     inkscape:window-width="1235"
     inkscape:window-height="773"
     id="namedview6362"
     showgrid="false"
     inkscape:zoom="0.53486282"
     inkscape:cx="670.24655"
     inkscape:cy="675.11759"
     inkscape:window-x="2084"
     inkscape:window-y="106"
     inkscape:window-maximized="0"
     inkscape:current-layer="svg6360" />
  <path
     style="fill:#000000;stroke-width:1.33333337"
     d="M 876.7099,1095.1479 C 732.4356,998.59418 654.3244,947.07948 653.3765,947.85848 c -4.6538,3.8249 -420.081,294.60292 -420.4148,294.26912 -0.3345,-0.3345 138.1072,-441.94632 146.226,-466.44312 l 2.5263,-7.6223 L 190.857,603.68448 0,439.30685 240.4184,438.64018 480.8368,437.97352 566.3778,219 C 613.4253,98.564571 652.2581,0.01457162 652.6728,1.6222085e-6 653.0876,-0.01459838 696.6421,98.523521 749.4607,218.97352 l 96.0338,219 229.8749,0.66666 229.8748,0.66667 -76.6824,70 c -42.1753,38.5 -123.0236,112.26803 -179.6627,163.92883 -56.6392,51.6609 -102.9803,94.4648 -102.9803,95.1198 0,0.655 34.486,107.7509 76.6356,237.99112 42.1496,130.2401 76.4996,236.9101 76.3334,237.0445 -0.1663,0.1343 -100.1464,-66.5751 -222.1779,-148.2432 z m -388.8702,-88.3037 c 90.8899,-64.89002 165.8916,-117.98182 166.6705,-117.98182 0.7789,0 81.6645,53.5012 179.7457,118.89152 98.0812,65.3902 178.319,118.4402 178.3061,117.8889 -0.013,-0.5514 -27.2863,-84.3923 -60.6074,-186.31322 -59.8716,-183.1322 -60.5539,-185.3422 -58.043,-188 1.3974,-1.4792 67.2769,-61.4894 146.399,-133.3561 L 1184.1687,487.30685 999.51149,486.64018 814.8543,485.97352 735.6378,305.30685 C 692.0687,205.94018 656.0082,124.23162 655.5033,123.73226 654.9985,123.2329 627.5974,191.9329 594.612,276.39893 561.6266,360.86496 529.6266,442.72352 523.5009,458.30685 l -11.1376,28.33333 H 319.0353 125.7072 l 154.89,132.7742 c 146.7455,125.7927 154.8435,132.9614 154.0052,136.3333 -0.4866,1.9576 -26.6395,85.8215 -58.1175,186.3643 -31.478,100.54292 -57.2328,183.22832 -57.2328,183.74542 0,0.5171 0.75,0.4966 1.6667,-0.046 0.9166,-0.5422 76.0311,-54.0776 166.9209,-118.9676 z"
     id="path6370"
     inkscape:connector-curvature="0" />
  <path
     style="fill:#000000;fill-opacity:1;stroke:#000000;stroke-width:1px;stroke-linecap:butt;stroke-linejoin:miter;stroke-opacity:1"
     d="M 654.17996,76.26225 654.40677,899.66254 290.84746,1164.0693 381.714,768.06218 107.01082,482.9009 494.60174,467.9438 Z"
     id="path6372"
     inkscape:connector-curvature="0"
     sodipodi:nodetypes="ccccccc" />
</svg>
